<svg width="66" height="48" viewBox="0 0 66 48" fill="none" xmlns="http://www.w3.org/2000/svg">
<rect width="66" height="48" fill="#0B55B0"/>
<path d="M32.9996 8L33.8507 10.6192H36.6045L34.3765 12.238L35.2276 14.8572L32.9996 13.2384L30.7714 14.8572L31.6226 12.238L29.3945 10.6192H32.1485L32.9996 8Z" fill="#FFDA44"/>
<path d="M21.6859 12.6867L24.1399 13.9369L26.0872 11.9897L25.6563 14.7097L28.1102 15.96L25.3901 16.3909L24.9593 19.111L23.709 16.6571L20.989 17.088L22.9363 15.1407L21.6859 12.6867Z" fill="#FFDA44"/>
<path d="M17 23.9996L19.6192 23.1485V20.3945L21.2379 22.6227L23.8572 21.7716L22.2382 23.9996L23.8572 26.2276L21.2379 25.3766L19.6192 27.6046V24.8507L17 23.9996Z" fill="#FFDA44"/>
<path d="M21.6859 35.3138L22.9362 32.8598L20.989 30.9125L23.7091 31.3436L24.9592 28.8896L25.3901 31.6097L28.1101 32.0405L25.6565 33.2909L26.0872 36.0108L24.1399 34.0635L21.6859 35.3138Z" fill="#FFDA44"/>
<path d="M32.9996 39.9991L32.1484 37.3798H29.3945L31.6227 35.7611L30.7714 33.1421L32.9996 34.7607L35.2276 33.1421L34.3765 35.7611L36.6045 37.3798H33.8506L32.9996 39.9991Z" fill="#FFDA44"/>
<path d="M44.3137 35.3138L41.8598 34.0636L39.9124 36.0109L40.3434 33.2908L37.8896 32.0405L40.6096 31.6097L41.0404 28.8896L42.2907 31.3436L45.0106 30.9125L43.0633 32.86L44.3137 35.3138Z" fill="#FFDA44"/>
<path d="M49.0005 23.9996L46.3813 24.8507V27.6046L44.7626 25.3765L42.1436 26.2276L43.7623 23.9996L42.1436 21.7716L44.7627 22.6227L46.3813 20.3945V23.1486L49.0005 23.9996Z" fill="#FFDA44"/>
<path d="M44.3137 12.6866L43.0634 15.1406L45.0107 17.0879L42.2906 16.6569L41.0404 19.1108L40.6096 16.3908L37.8896 15.9598L40.3434 14.7096L39.9124 11.9897L41.8599 13.9369L44.3137 12.6866Z" fill="#FFDA44"/>
</svg>
