<svg width="46" height="46" viewBox="0 0 46 46" fill="none" xmlns="http://www.w3.org/2000/svg">
<path d="M21.5936 40.2605L22.7396 39.2926C20.6521 36.8207 17.9599 34.6125 15.4798 32.5783L15.3883 32.5032L15.3877 32.5028C12.6816 30.2853 10.087 28.1514 8.14831 25.7342C6.23838 23.3529 5.03857 20.7831 5.03857 17.7081C5.03857 14.8801 6.02168 12.5677 7.62695 10.9654C9.23242 9.36291 11.5507 8.38037 14.3875 8.38037C17.4317 8.38037 20.2116 10.6022 21.912 12.3821L22.9966 13.5174L24.0812 12.3821C25.7804 10.6035 28.5676 8.38037 31.6145 8.38037C34.4503 8.38037 36.7681 9.36284 38.3734 10.9653C39.9785 12.5677 40.9617 14.8801 40.9617 17.7081C40.9617 20.7838 39.7611 23.354 37.8505 25.7354C35.9111 28.1526 33.3161 30.2861 30.6108 32.5027L30.5832 32.5253C28.0823 34.5736 25.3652 36.7988 23.2568 39.2909C23.2023 39.3547 23.1255 39.3885 23.0497 39.3885H22.947C22.8696 39.3885 22.7915 39.3538 22.7371 39.2897L21.5936 40.2605ZM21.5936 40.2605C21.9315 40.6585 22.4269 40.8885 22.947 40.8885H23.0497C23.5716 40.8885 24.0652 40.6568 24.4013 40.2605L21.9211 10.3002C20.0975 8.65615 17.4256 6.88037 14.3875 6.88037C7.9988 6.88037 3.53857 11.3335 3.53857 17.7081C3.53857 24.7319 9.07804 29.2718 14.437 33.663L14.4737 33.6931C16.9923 35.759 19.5952 37.8941 21.5936 40.2605Z" stroke="white" stroke-width="3"/>
</svg>
