<svg width="100" height="100" viewBox="0 0 100 100" fill="none" xmlns="http://www.w3.org/2000/svg">
<path d="M21.2469 43.8036C23.8271 42.0325 27.3418 36.737 21.8788 29.5654C15.9106 36.0014 18.8102 41.7097 21.2469 43.8036Z" stroke="#2B2B2B" stroke-width="2"/>
<path d="M22.6126 51.976C25.7241 52.3122 31.8398 50.5823 32.3642 41.5822C23.6438 42.5799 22.127 48.8001 22.6126 51.976Z" stroke="#2B2B2B" stroke-width="2"/>
<path d="M21.7372 52.1978C18.7156 53.0126 12.4055 52.2523 10.4914 43.4424C19.261 43.0754 21.7243 48.985 21.7372 52.1978Z" stroke="#2B2B2B" stroke-width="2"/>
<path d="M24.0332 61.2043C21.6693 63.2552 15.6593 65.3228 10.0949 58.2295C17.8267 54.0748 22.6206 58.3187 24.0332 61.2043Z" stroke="#2B2B2B" stroke-width="2"/>
<path d="M23.746 61.3644C26.7676 62.1792 33.0777 61.4189 34.9918 52.6091C26.2221 52.242 23.7588 58.1517 23.746 61.3644Z" stroke="#2B2B2B" stroke-width="2"/>
<path d="M29.6073 71.9606C32.7369 71.9655 38.6351 69.598 38.2039 60.5929C29.638 62.5081 28.7882 68.8539 29.6073 71.9606Z" stroke="#2B2B2B" stroke-width="2"/>
<path d="M40.6837 80.4165C43.3965 78.8561 47.3208 73.8566 42.4447 66.2736C35.9841 72.2151 38.4211 78.1357 40.6837 80.4165Z" stroke="#2B2B2B" stroke-width="2"/>
<path d="M40.1382 80.1393C39.333 83.1635 35.5195 88.248 26.9329 85.5008C30.9999 77.7225 37.3494 78.5441 40.1382 80.1393Z" stroke="#2B2B2B" stroke-width="2"/>
<path d="M29.7163 72.202C28.2038 74.9418 23.2742 78.9535 15.6066 74.2117C21.4334 67.6475 27.396 69.9798 29.7163 72.202Z" stroke="#2B2B2B" stroke-width="2"/>
<path d="M21.2498 43.6211C20.972 56.26 26.6665 81.1211 47.0832 81.1211" stroke="#2B2B2B" stroke-width="2"/>
<path d="M78.3363 43.8036C75.7561 42.0325 72.2415 36.737 77.7045 29.5654C83.6727 36.0014 80.7731 41.7097 78.3363 43.8036Z" stroke="#2B2B2B" stroke-width="2"/>
<path d="M76.9706 51.976C73.8592 52.3122 67.7434 50.5823 67.219 41.5822C75.9394 42.5799 77.4563 48.8001 76.9706 51.976Z" stroke="#2B2B2B" stroke-width="2"/>
<path d="M77.8461 52.1978C80.8677 53.0126 87.1778 52.2523 89.0919 43.4424C80.3222 43.0754 77.8589 48.985 77.8461 52.1978Z" stroke="#2B2B2B" stroke-width="2"/>
<path d="M75.5501 61.2043C77.9139 63.2552 83.9239 65.3228 89.4883 58.2295C81.7566 54.0748 76.9627 58.3187 75.5501 61.2043Z" stroke="#2B2B2B" stroke-width="2"/>
<path d="M75.8373 61.3644C72.8157 62.1792 66.5056 61.4189 64.5915 52.6091C73.3611 52.242 75.8244 58.1517 75.8373 61.3644Z" stroke="#2B2B2B" stroke-width="2"/>
<path d="M69.9759 71.9606C66.8464 71.9655 60.9481 69.598 61.3794 60.5929C69.9452 62.5081 70.795 68.8539 69.9759 71.9606Z" stroke="#2B2B2B" stroke-width="2"/>
<path d="M58.8995 80.4165C56.1868 78.8561 52.2625 73.8566 57.1385 66.2736C63.5991 72.2151 61.1622 78.1357 58.8995 80.4165Z" stroke="#2B2B2B" stroke-width="2"/>
<path d="M59.445 80.1393C60.2502 83.1635 64.0637 88.248 72.6503 85.5008C68.5834 77.7225 62.2338 78.5441 59.445 80.1393Z" stroke="#2B2B2B" stroke-width="2"/>
<path d="M69.8669 72.202C71.3794 74.9418 76.3091 78.9535 83.9767 74.2117C78.1498 67.6475 72.1873 69.9798 69.8669 72.202Z" stroke="#2B2B2B" stroke-width="2"/>
<path d="M78.3334 43.6211C78.6112 56.26 72.9168 81.1211 52.5001 81.1211" stroke="#2B2B2B" stroke-width="2"/>
<path d="M50.4167 18.0929L53.0834 23.4963C53.3747 24.0865 53.9378 24.4957 54.5892 24.5903L60.5522 25.4568L56.2374 29.6627C55.766 30.1222 55.5509 30.7842 55.6622 31.433L56.6808 37.3718L51.3473 34.5679C50.7647 34.2616 50.0686 34.2616 49.486 34.5679L44.1526 37.3718L45.1712 31.433C45.2824 30.7842 45.0673 30.1222 44.596 29.6627L40.2811 25.4568L46.2441 24.5903C46.8955 24.4957 47.4586 24.0865 47.75 23.4963L50.4167 18.0929Z" stroke="#2B2B2B" stroke-width="2"/>
</svg>
